<?xml version="1.0" standalone="no"?><!DOCTYPE svg PUBLIC "-//W3C//DTD SVG 1.1//EN" "http://www.w3.org/Graphics/SVG/1.1/DTD/svg11.dtd"><svg t="1755678377945" class="icon" viewBox="0 0 1024 1024" version="1.1" xmlns="http://www.w3.org/2000/svg" p-id="2380" xmlns:xlink="http://www.w3.org/1999/xlink" width="256" height="256"><path d="M25.408 478.336a494.14 464.869 0 1 0 988.278 0 494.14 464.869 0 1 0-988.278 0z" fill="#00AFF4" p-id="2381"></path><path d="M519.547 945.763c-67.034 0-132.065-12.351-193.287-36.713C267.118 885.517 214 851.826 168.385 808.912c-45.627-42.924-81.452-92.914-106.478-148.578C35.991 602.692 22.85 541.458 22.85 478.337S35.99 353.984 61.907 296.34c25.027-55.665 60.85-105.653 106.478-148.578 45.617-42.914 98.733-76.605 157.875-100.138 61.222-24.362 126.253-36.715 193.287-36.715s132.065 12.353 193.287 36.714c59.143 23.533 112.26 57.224 157.876 100.138 45.627 42.925 81.452 92.913 106.479 148.578 25.915 57.644 39.056 118.876 39.056 181.997s-13.14 124.355-39.056 181.997c-25.027 55.664-60.852 105.654-106.48 148.578-45.615 42.915-98.732 76.605-157.875 100.138-61.222 24.363-126.253 36.714-193.287 36.714z m0-929.737c-66.383 0-130.778 12.23-191.395 36.35-58.542 23.294-111.115 56.64-156.261 99.111-45.135 42.461-80.57 91.902-105.318 146.95-25.617 56.98-38.607 117.506-38.607 179.898 0 62.393 12.989 122.92 38.607 179.899 24.75 55.047 60.183 104.488 105.318 146.95 45.145 42.472 97.72 75.817 156.26 99.112 60.618 24.12 125.013 36.35 191.396 36.35s130.778-12.23 191.395-36.35c58.542-23.295 111.116-56.64 156.26-99.112 45.136-42.46 80.57-91.903 105.32-146.95 25.617-56.98 38.607-117.506 38.607-179.899s-12.989-122.92-38.607-179.898c-24.75-55.048-60.183-104.489-105.32-146.95-45.144-42.471-97.718-75.818-156.26-99.111-60.617-24.12-125.012-36.35-191.395-36.35z" fill="" p-id="2382"></path><path d="M71.767 532.546a445.116 384.86 0 1 0 890.23 0 445.116 384.86 0 1 0-890.23 0z" fill="#FFFFFF" p-id="2383"></path><path d="M516.881 919.965c-60.391 0-118.98-10.228-174.137-30.4-53.297-19.49-101.166-47.398-142.28-82.947-41.14-35.572-73.445-77.003-96.016-123.144-23.384-47.8-35.24-98.58-35.24-150.928s11.856-103.129 35.24-150.93c22.57-46.14 54.876-87.571 96.017-123.142 41.113-35.549 88.983-63.455 142.28-82.946 55.157-20.172 113.746-30.4 174.136-30.4s118.98 10.227 174.138 30.4c53.297 19.49 101.166 47.397 142.28 82.946 41.14 35.571 73.445 77.003 96.018 123.142 23.383 47.801 35.24 98.58 35.24 150.93s-11.857 103.128-35.24 150.928c-22.573 46.141-54.877 87.572-96.017 123.144-41.115 35.548-88.984 63.456-142.28 82.947-55.159 20.172-113.747 30.4-174.139 30.4z m0-769.72c-59.79 0-117.786 10.123-172.38 30.088-52.712 19.277-100.047 46.87-140.69 82.012-40.616 35.118-72.5 76.003-94.767 121.52-23.038 47.095-34.72 97.119-34.72 148.68s11.682 101.587 34.72 148.681c22.267 45.518 54.15 86.404 94.767 121.522 40.644 35.141 87.979 62.735 140.69 82.012 54.594 19.965 112.59 30.088 172.38 30.088s117.787-10.124 172.381-30.088c52.713-19.277 100.048-46.87 140.69-82.012 40.617-35.118 72.502-76.003 94.767-121.522 23.039-47.093 34.72-97.117 34.72-148.68s-11.681-101.586-34.72-148.68c-22.266-45.518-54.15-86.404-94.767-121.521-40.643-35.141-87.978-62.735-140.69-82.012-54.593-19.966-112.591-30.088-172.38-30.088z" fill="" p-id="2384"></path><path d="M323.42 168.158a121.59 98.063 90 1 0 196.127 0 121.59 98.063 90 1 0-196.127 0z" fill="#FFFFFF" p-id="2385"></path><path d="M421.484 292.305c-55.482 0-100.621-55.692-100.621-124.147S366.002 44.01 421.484 44.01s100.621 55.693 100.621 124.148-45.139 124.147-100.62 124.147z m0-243.178c-52.66 0-95.505 53.397-95.505 119.03s42.844 119.032 95.505 119.032c52.662 0 95.505-53.397 95.505-119.031S474.146 49.127 421.484 49.127z" fill="" p-id="2386"></path><path d="M438.602 211.167a43.01 26.093 90 1 0 52.187 0 43.01 26.093 90 1 0-52.187 0z" fill="" p-id="2387"></path><path d="M451.65 211.167a21.505 13.046 90 1 0 26.092 0 21.505 13.046 90 1 0-26.093 0z" fill="#FFFAF6" p-id="2388"></path><path d="M522.451 168.158a121.59 98.063 90 1 0 196.127 0 121.59 98.063 90 1 0-196.127 0z" fill="#FFFFFF" p-id="2389"></path><path d="M620.515 292.305c-55.483 0-100.621-55.692-100.621-124.147S565.032 44.01 620.515 44.01s100.621 55.693 100.621 124.148-45.139 124.147-100.62 124.147z m0-243.178c-52.66 0-95.505 53.397-95.505 119.03s42.844 119.032 95.505 119.032 95.505-53.397 95.505-119.031-42.843-119.031-95.505-119.031z" fill="" p-id="2390"></path><path d="M544.26 211.167a43.01 26.093 90 1 0 52.186 0 43.01 26.093 90 1 0-52.186 0z" fill="" p-id="2391"></path><path d="M557.307 211.167a21.505 13.046 90 1 0 26.092 0 21.505 13.046 90 1 0-26.092 0z" fill="#FFFAF6" p-id="2392"></path><path d="M451.905 324.53a69.329 69.329 0 1 0 138.658 0 69.329 69.329 0 1 0-138.658 0z" fill="#F9252D" p-id="2393"></path><path d="M521.234 396.417c-39.638 0-71.887-32.249-71.887-71.888s32.249-71.887 71.887-71.887 71.887 32.248 71.887 71.887-32.248 71.888-71.887 71.888z m0-138.658c-36.817 0-66.77 29.953-66.77 66.77s29.953 66.771 66.77 66.771 66.77-29.953 66.77-66.77-29.952-66.771-66.77-66.771z m-9.31 284.731c-98.084-2.963-126.463-7.032-128.847-7.396-3.328-0.192-67.109-4.064-130.618-19.777-38.247-9.464-68.957-21.319-91.273-35.235-28.367-17.689-43.303-38.825-44.394-62.824-1.316-28.945 6.267-49.97 22.535-62.488 30.911-23.785 81.486-8.275 83.625-7.603l-1.533 4.881c-0.5-0.157-50.2-15.378-78.984 6.787-14.86 11.441-21.767 31.02-20.532 58.19 1.01 22.21 15.129 41.96 41.967 58.7 21.85 13.63 52.048 25.274 89.756 34.61 64.445 15.952 129.214 19.622 129.86 19.657l0.263 0.027c0.271 0.043 28.255 4.332 128.328 7.356l-0.154 5.115z" fill="" p-id="2394"></path><path d="M512.077 542.863l-0.154-5.115c101.418-3.064 101.418-3.064 128.3-7.351l0.291-0.032c0.647-0.035 65.416-3.704 129.86-19.658 37.708-9.335 67.906-20.98 89.756-34.609 26.838-16.741 40.957-36.49 41.968-58.7 1.234-27.17-5.674-46.75-20.533-58.19-28.782-22.165-78.484-6.943-78.983-6.787l-1.534-4.882c2.139-0.673 52.714-16.183 83.625 7.604 16.268 12.518 23.852 33.542 22.535 62.488-1.09 23.998-16.027 45.135-44.394 62.824-22.317 13.915-53.026 25.77-91.274 35.234-63.48 15.708-127.233 19.582-130.613 19.777-27.103 4.322-27.266 4.327-128.85 7.397z" fill="" p-id="2395"></path><path d="M857.974 483.23c0 176.836-151.604 325.307-338.615 325.307s-338.617-143.353-338.617-320.19c11.633 3.682 48.384 19.84 99.297 30.929 62.673 13.65 146.807 22.252 231.961 22.396 79.149 0.133 159.18-7.259 223.682-20.397 56.128-11.432 100.495-33.573 122.292-38.044z" fill="#F9252D" p-id="2396"></path><path d="M519.358 811.095c-91.104 0-176.762-33.554-241.195-94.48-64.472-60.964-99.979-142.032-99.979-228.268v-3.492l3.33 1.054c2.699 0.853 6.7 2.357 11.768 4.26 16.81 6.316 48.1 18.07 87.301 26.607 64.543 14.056 148.892 22.197 231.421 22.338 78.868 0.127 158.104-7.094 223.167-20.346 34.443-7.015 63.894-17.886 87.557-26.622 14.635-5.403 26.195-9.67 34.73-11.421l3.072-0.63v3.136c0 43.62-9.026 86.17-26.828 126.465-17.22 38.98-41.826 74.084-73.13 104.34-31.405 30.35-67.889 54.207-108.437 70.904-42.143 17.356-86.817 26.155-132.777 26.155zM183.322 491.932c0.97 83.476 35.812 161.823 98.356 220.964 63.48 60.025 147.89 93.082 237.68 93.082 45.29 0 89.306-8.67 130.83-25.768 39.95-16.451 75.892-39.953 106.83-69.853 30.826-29.794 55.053-64.357 72.004-102.729 17.075-38.65 25.943-79.401 26.375-121.179-7.858 1.99-18.204 5.81-30.897 10.495-22.57 8.332-53.48 19.743-88.308 26.836-64.8 13.2-143.584 20.451-222.06 20.451l-2.136-0.002c-82.876-0.14-167.62-8.325-232.502-22.454-39.566-8.617-71.08-20.456-88.012-26.817-3.17-1.19-5.919-2.223-8.16-3.026z" fill="" p-id="2397"></path><path d="M490.789 303.3a21.228 21.228 0 1 0 42.457 0 21.228 21.228 0 1 0-42.457 0z" fill="#FFFFFF" p-id="2398"></path><path d="M765.404 954.35h-506.81c-22.707 0-41.286-18.577-41.286-41.286V897.31c0-22.708 18.578-41.287 41.287-41.287h506.81c22.707 0 41.286 18.578 41.286 41.287v15.754c0 22.709-18.58 41.287-41.287 41.287z" fill="#F9252D" p-id="2399"></path><path d="M765.405 956.909h-506.81c-24.175 0-43.844-19.669-43.844-43.845V897.31c0-24.176 19.669-43.844 43.845-43.844h506.81c24.175 0 43.843 19.668 43.843 43.844v15.754c-0.001 24.177-19.668 43.845-43.844 43.845z m-506.81-98.325c-21.354 0-38.727 17.373-38.727 38.727v15.754c0 21.355 17.373 38.728 38.728 38.728h506.81c21.353 0 38.726-17.373 38.726-38.728V897.31c0-21.354-17.373-38.727-38.727-38.727h-506.81zM518.676 393.858h5.117v145.804h-5.117zM154.07 268.399l2.16-4.639 222.566 103.623-2.159 4.639z m-43.748 119.186l0.586-5.082L373.37 412.78l-0.587 5.083z m3.005 104.002l259.39-36.943 0.721 5.065-259.39 36.943zM651.912 361.179l222.542-103.65 2.16 4.638-222.542 103.649z m5.38 45.335l262.462-30.252 0.586 5.082-262.463 30.253z m-0.094 46.992l0.72-5.066 259.391 36.918-0.721 5.066z" fill="" p-id="2400"></path><path d="M512.217 657.653S260.496 517.98 288.124 722.12c0 0 84.419 89.535 247.116 86.465 0 0 29.39-0.407 68.352-10.566 50.126-13.068 114.75-39.595 138.858-73.853 0.11-2.788 7.563-195.382-230.233-66.512z" fill="#FF7307" p-id="2401"></path><path d="M527.208 811.218c-80.536 0-140.88-22.89-177.737-42.456-41.338-21.945-62.334-43.962-63.208-44.888l-0.564-0.598-0.11-0.815c-6.75-49.877 2.578-83.878 27.726-101.06 25.957-17.734 67.616-17.348 123.817 1.144 37.08 12.2 68.557 28.688 75.087 32.198 84.345-45.479 147.553-55.815 187.868-30.71 47.18 29.38 45.033 97.355 44.919 100.233l-0.03 0.754-0.434 0.617c-24.32 34.56-88.422 61.33-140.303 74.856-38.813 10.119-68.666 10.644-68.963 10.648-2.712 0.052-5.4 0.077-8.068 0.077z m-236.66-90.28c3.61 3.628 24.514 23.799 61.533 43.416 37.511 19.88 99.73 43.257 183.111 41.673 0.303-0.005 29.58-0.532 67.755-10.483 27.792-7.246 55.742-17.474 78.699-28.8 27.392-13.512 47.517-28.516 58.269-43.43 0.179-7.836 0.124-68.372-42.532-94.935-38.832-24.183-100.723-13.579-183.947 31.526l-1.233 0.668-1.227-0.68c-1.352-0.75-135.86-74.523-194.776-34.263-23.28 15.904-31.908 47.968-25.653 95.308z" fill="" p-id="2402"></path><path d="M449.642 944.507a69.329 69.329 0 1 0 138.659 0 69.329 69.329 0 1 0-138.658 0z" fill="#FFE315" p-id="2403"></path><path d="M518.972 1016.393c-39.639 0-71.887-32.249-71.887-71.886 0-39.64 32.248-71.888 71.887-71.888 39.638 0 71.886 32.249 71.886 71.888 0 39.638-32.247 71.886-71.886 71.886z m0-138.657c-36.818 0-66.77 29.953-66.77 66.77s29.952 66.77 66.77 66.77 66.77-29.953 66.77-66.77-29.953-66.77-66.77-66.77z" fill="" p-id="2404"></path><path d="M495.609 961.59a23.363 23.363 0 1 0 46.726 0 23.363 23.363 0 1 0-46.726 0z" fill="#826D5F" p-id="2405"></path><path d="M518.972 987.51c-14.294 0-25.923-11.627-25.923-25.92s11.63-25.922 25.923-25.922 25.921 11.628 25.921 25.922-11.628 25.92-25.921 25.92z m0-46.725c-11.473 0-20.805 9.332-20.805 20.805s9.332 20.804 20.805 20.804 20.805-9.332 20.805-20.804-9.333-20.805-20.805-20.805z" fill="" p-id="2406"></path><path d="M516.414 984.953h5.116v28.883h-5.116z" fill="" p-id="2407"></path><path d="M584.59 928.899l-67.708-4.093-66.424 4.093c-6.52 0-11.856-5.335-11.856-11.856s5.336-11.856 11.856-11.856l66.424-4.093 67.708 4.093c6.52 0 11.856 5.336 11.856 11.856s-5.335 11.856-11.856 11.856z" fill="#FFE315" p-id="2408"></path><path d="M584.59 931.457l-0.153-0.005-67.553-4.083-66.426 4.088c-7.948 0-14.413-6.466-14.413-14.414 0-7.92 6.421-14.37 14.332-14.414l66.504-4.099 0.156 0.01 67.635 4.089c7.91 0.044 14.334 6.494 14.334 14.414-0.001 7.948-6.468 14.414-14.416 14.414z m-67.71-9.214l0.156 0.01 67.627 4.089c5.093-0.04 9.225-4.196 9.225-9.298 0-5.127-4.171-9.298-9.298-9.298l-0.153-0.005-67.553-4.083-66.426 4.088c-5.126 0-9.296 4.171-9.296 9.298 0 5.102 4.13 9.258 9.223 9.298l66.495-4.099z" fill="" p-id="2409"></path></svg>